<svg width="173" height="47" viewBox="0 0 173 47" fill="none" xmlns="http://www.w3.org/2000/svg">
<path d="M166.787 28.5882C166.787 29.3829 166.944 29.6409 167.934 29.5993L167.781 30.1235C167.167 30.3719 166.498 30.5024 165.82 30.5063C164.658 30.5063 163.769 30.0487 163.372 29.1C162.731 30.0903 161.492 30.5063 160.206 30.5063C158.178 30.5063 157.274 29.6367 157.274 27.7644C157.274 25.7174 159.976 25.0475 161.311 24.6023C161.904 24.4026 162.458 24.1113 163.004 23.8118C163.3 23.5746 163.377 23.2958 163.377 22.9713C163.377 21.9394 162.999 20.8452 161.861 20.8452C161.048 20.8535 160.125 20.8327 158.862 21.8853L158.312 21.1531C159.432 20.2208 160.923 19.7032 162.473 19.7093C164.553 19.7093 166.791 20.4083 166.791 22.5635L166.787 28.5882ZM163.372 27.7228V24.8394C162.755 25.0766 161.947 25.2722 161.225 25.7673C160.584 26.2166 160.431 26.6993 160.431 27.39C160.431 28.1847 160.689 29.1791 161.755 29.1791C162.784 29.1749 163.319 28.7963 163.372 27.7228ZM134.673 39.4976C134.601 41.7153 135.869 43.8622 138.489 43.8622C139.905 43.8622 140.809 43.5169 141.574 42.9593L141.87 43.1507L141.1 44.2575C140.206 44.7526 138.7 44.8941 137.485 44.8941C133.382 44.8941 131.277 42.743 131.277 39.2355C131.277 36.2232 133.659 34.0679 137.246 34.0679C141.196 34.0679 142.593 36.4145 142.32 39.4935H134.673V39.4976ZM134.673 38.628H139.36C139.36 37.3257 139.034 34.846 137.122 34.846C135.008 34.846 134.721 37.3257 134.673 38.628ZM73.4921 28.0474L72.9469 29.8989C71.4596 30.5646 69.7045 30.8225 68.0498 30.8225C62.7557 30.8225 58.9394 28.1805 58.9394 23.766C58.9394 18.149 63.2053 15.457 68.595 15.457C70.2258 15.457 72.2057 15.8232 73.6404 16.5097C73.4204 17.242 73.2722 17.9743 73.0713 18.7274H72.7222C71.8087 17.5665 70.2258 16.7469 68.6189 16.7469C64.5109 16.7469 63.0427 20.3001 63.0427 23.4623C63.0427 27.1445 64.9317 29.5286 68.7432 29.5286C70.2784 29.5286 72.0574 28.8379 73.1717 27.9142L73.4921 28.0474ZM104.874 27.7686C104.874 28.9461 104.941 29.9197 106.854 29.6367V30.3607C106.347 30.5979 105.371 30.6894 104.606 30.6894C102.033 30.6894 101.464 29.3705 101.464 27.3692V21.2529H99.7808C99.8598 20.8844 99.8598 20.5064 99.7808 20.1378H101.464V17.9701C102.574 17.5832 103.688 17.1338 104.879 16.6387V20.142H106.978C106.904 20.5109 106.904 20.8882 106.978 21.2571H104.879L104.874 27.7686ZM107.825 19.8757C108.394 19.9173 108.963 19.9839 109.532 19.9839C110.101 19.9839 110.67 19.9173 111.239 19.8757V30.3149C110.67 30.2692 110.101 30.2068 109.532 30.2068C108.963 30.2068 108.394 30.2692 107.825 30.3149V19.8757ZM109.508 15.0951C110.57 15.0951 111.488 15.8731 111.488 16.7968C111.477 17.2483 111.264 17.6782 110.894 17.9952C110.524 18.3121 110.027 18.4912 109.508 18.4944C108.996 18.4857 108.507 18.3036 108.146 17.9866C107.785 17.6697 107.581 17.2428 107.576 16.7968C107.581 16.3504 107.785 15.9231 108.146 15.6054C108.507 15.2878 108.995 15.1048 109.508 15.0951ZM172.148 30.3149C171.578 30.2692 171.009 30.2068 170.44 30.2068C169.871 30.2068 169.302 30.2692 168.738 30.3149V15.74C169.307 15.7816 169.876 15.8481 170.44 15.8481C171.009 15.8481 171.578 15.7816 172.148 15.74V30.3149ZM48.6669 29.9405C49.2838 29.9862 49.9055 30.0487 50.5224 30.0487C51.1394 30.0487 51.7611 29.9862 52.378 29.9405V44.7068C51.7611 44.6611 51.1394 44.5987 50.5224 44.5987C49.9055 44.5987 49.2838 44.6652 48.6669 44.7068V29.9405ZM75.0034 34.9208L74.5586 36.7141L74.0947 36.6475C73.6978 35.8445 72.5165 35.0373 71.4022 35.0373C70.5127 35.0373 69.7236 35.5325 69.7236 36.4187C69.7236 38.5032 75.3238 37.6586 75.386 41.4532C75.4194 43.4545 73.6069 45.0272 70.6132 45.0272C69.3984 45.0272 67.8298 44.8774 66.8207 44.2741C66.969 43.5876 67.0933 42.9177 67.1938 42.2312H67.6194C68.2315 43.6958 69.6758 43.9621 71.0101 43.9621C71.8757 43.9621 72.727 43.2381 72.727 42.485C72.727 40.4629 67.1985 41.2368 67.1985 37.4922C67.1985 35.2953 69.2024 34.0679 71.4549 34.0679C72.6887 34.0721 74.0995 34.3383 75.0034 34.9208ZM96.5479 36.8389C96.3901 36.8681 95.888 36.7682 95.5197 36.764C94.5632 36.7391 93.5398 37.3923 93.2433 38.316C93.0233 38.9401 93.0951 40.1259 93.0951 40.8124V44.711C92.526 44.6652 91.9568 44.6028 91.3877 44.6028C90.8186 44.6028 90.2496 44.6694 89.6805 44.711V34.2676C90.2496 34.3092 90.8186 34.3716 91.3877 34.3716C91.9568 34.3716 92.526 34.3092 93.0951 34.2676L93.2051 36.3563C93.5733 35.5574 95.0989 34.018 96.5575 34.1386C96.454 35.0364 96.4508 35.9407 96.5479 36.8389ZM130.034 37.0511L129.632 36.8847C129.455 35.6989 128.303 35.0415 126.844 35.0415C124.52 35.0415 123.803 37.6669 123.803 39.2605C123.803 41.8443 124.864 43.7665 127.562 43.7665C128.475 43.7665 130.034 43.2797 130.632 42.6556L130.976 42.8553L130.115 44.1119C129.422 44.6528 127.514 44.8982 126.624 44.8982C122.789 44.8982 120.144 43.0467 120.144 39.6682C120.144 36.2481 122.765 34.0721 126.648 34.0721C128.059 34.0721 129.738 34.3716 130.904 35.0415L130.034 37.0511ZM80.7613 44.8566C77.6432 44.8566 76.4715 42.8553 76.4715 40.0344V34.2593C77.0407 34.3009 77.6098 34.3675 78.1789 34.3675C78.748 34.3675 79.3171 34.3009 79.8862 34.2593V39.8471C79.8862 41.8484 80.1827 43.313 81.9139 43.313C84.066 43.313 84.2955 41.4906 84.2955 40.1301V34.2593C84.8646 34.3009 85.4337 34.3675 86.0028 34.3675C86.5719 34.3675 87.141 34.3009 87.7101 34.2593V44.6985C87.1649 44.6569 86.6197 44.5903 86.0506 44.5903C85.5054 44.5903 84.9603 44.6569 84.4198 44.6985L84.2668 43.4004C83.7073 44.3906 82.0143 44.8566 80.7613 44.8566ZM61.5984 34.1053C64.7165 34.1053 65.8882 36.1067 65.8882 38.9276V44.7068C65.3191 44.6611 64.75 44.5987 64.1809 44.5987C63.6118 44.5987 63.0427 44.6652 62.4736 44.7068V39.1148C62.4736 37.1135 62.1771 35.649 60.4458 35.649C58.2938 35.649 58.0642 37.4755 58.0642 38.8319V44.7068C57.4951 44.6611 56.926 44.5987 56.3617 44.5987C55.7926 44.5987 55.2235 44.6652 54.6544 44.7068V34.2676C55.1996 34.3092 55.7448 34.3716 56.3139 34.3716C56.8591 34.3716 57.4043 34.3092 57.9495 34.2676L58.1073 35.5117C58.7816 34.5422 60.3359 34.1053 61.5984 34.1053ZM129.092 25.1057C129.02 27.3234 130.288 29.4745 132.913 29.4745C134.329 29.4745 135.228 29.1291 135.998 28.5716L136.294 28.763L135.519 29.8697C134.63 30.3649 133.119 30.5063 131.909 30.5063C127.801 30.5063 125.696 28.3552 125.696 24.8478C125.696 21.8354 128.078 19.6802 131.665 19.6802C135.615 19.6802 137.012 22.0268 136.739 25.1057H129.092ZM129.092 24.2403H133.779C133.779 22.9338 133.453 20.4541 131.536 20.4541C129.431 20.4541 129.145 22.9338 129.092 24.2403ZM154.807 27.7686C154.807 28.9461 154.874 29.9197 156.787 29.6367V30.3607C156.28 30.5979 155.304 30.6894 154.534 30.6894C151.961 30.6894 151.392 29.3705 151.392 27.3692V21.2529H149.709C149.788 20.8844 149.788 20.5064 149.709 20.1378H151.392V17.9701C152.502 17.5832 153.616 17.1338 154.807 16.6387V20.142H156.906C156.827 20.5105 156.827 20.8886 156.906 21.2571H154.807V27.7686ZM105.697 42.976C105.697 43.7707 105.854 44.0286 106.844 43.987L106.691 44.5155C106.077 44.7638 105.408 44.8943 104.731 44.8982C103.568 44.8982 102.679 44.4406 102.282 43.4919C101.641 44.4822 100.403 44.8982 99.1161 44.8982C97.0883 44.8982 96.1845 44.0286 96.1845 42.1563C96.1845 40.1093 98.8865 39.4394 100.216 38.9942C100.814 38.7945 101.364 38.5032 101.909 38.2037C102.205 37.9665 102.282 37.6877 102.282 37.3632C102.282 36.3272 101.904 35.2371 100.766 35.2371C99.953 35.2454 99.03 35.2246 97.7674 36.2772L97.2174 35.545C98.3796 34.5963 99.8191 34.1012 101.378 34.1012C103.458 34.1012 105.697 34.8002 105.697 36.9554V42.976ZM102.282 42.1106V39.2313C101.665 39.4685 100.852 39.6641 100.135 40.155C99.4939 40.6085 99.3408 41.0912 99.3408 41.7777C99.3408 42.5724 99.5991 43.5668 100.666 43.5668C101.694 43.5668 102.229 43.1882 102.282 42.1106ZM80.4457 19.7551C84.659 19.7551 86.8828 22.2016 86.8828 25.2139C86.8828 28.2304 84.6159 30.6728 80.4457 30.6728C76.2707 30.6728 74.0039 28.2304 74.0039 25.2139C74.0086 22.2016 76.2324 19.7551 80.4457 19.7551ZM80.4457 20.504C78.2841 20.504 77.4472 22.6135 77.4472 25.2181C77.4472 27.8227 77.9397 29.9322 80.4457 29.9322C82.9469 29.9322 83.4442 27.8227 83.4442 25.2181C83.4442 22.6135 82.6073 20.504 80.4457 20.504ZM41.8185 18.2198C41.742 18.5817 41.5938 18.8439 41.1729 18.7815C40.4508 18.7149 37.8348 18.7482 37.2657 18.7482C33.9037 18.7482 31.3547 19.8091 30.2309 20.5622C29.6187 20.97 29.4992 21.1239 29.6618 21.5026C29.7813 21.773 30.0587 21.9561 30.3982 22.1808C30.8526 22.4762 30.9673 23.0046 30.9673 23.4664V30.8267C30.9673 31.3218 31.1204 31.4217 31.5747 31.5215L33.6216 31.7837C34.1524 31.817 34.2289 31.9834 33.8511 32.1789L31.5365 33.0069C31.0439 33.1734 30.8526 33.4022 30.8526 34.0637C30.8526 34.7253 31.4217 35.2163 32.2203 35.2163C33.6598 35.2495 35.9027 35.4118 36.5053 35.6781C35.8262 35.9444 33.8511 36.1108 32.2203 36.0734C30.5895 36.0442 30.5895 36.3729 30.513 36.7682C30.4365 37.4298 31.8425 37.6586 32.6747 37.6586C33.5116 37.6586 34.798 37.5587 35.1758 37.3632C35.8597 37.1011 35.8215 37.7917 35.6732 38.2536C35.5202 38.7154 34.2289 39.1773 32.6364 39.0816C31.3165 38.9983 30.6613 39.8721 30.5848 40.7292C30.5848 42.3519 31.4838 42.9552 32.6794 43.0259C34.9128 43.1549 38.1935 41.4407 38.7817 40.9289C39.2361 40.5961 39.5421 40.8291 39.1643 41.191C38.0739 42.356 36.8257 43.2922 35.5249 44.0411C30.9243 46.679 25.635 46.9994 24.2147 46.9994C22.3926 46.9994 22.0482 46.833 21.2544 45.8094C17.8398 46.0091 16.0942 44.6195 15.6399 44.3573C15.1855 44.0952 15.109 43.7291 15.2621 43.0384L16.1707 40.1966C19.5853 43.3005 20.7235 42.044 20.4222 40.8582L18.6002 33.5353C15.4103 33.1359 14.3486 29.903 14.3486 29.5078C14.3486 29.1125 14.1191 28.6507 13.2104 28.8462C11.0105 29.3081 3.87525 31.222 2.13447 30.7601C6.68728 29.3081 7.82549 25.0808 8.58588 21.8479C9.56627 17.6248 11.5414 14.059 12.9044 12.3448C19.2792 3.89443 33.7746 0 39.6952 0C45.6157 0 46.0701 1.64764 45.4627 4.48941L41.8185 18.2198ZM25.1998 26.3706C24.4059 26.3373 22.8852 26.7991 23.3777 28.5175C23.6312 29.3954 23.9134 30.2941 24.3151 30.9557C24.7025 31.5881 25.195 32.0042 25.8837 31.9834C26.9071 31.9501 27.3328 31.172 27.4762 30.7643C27.8128 29.8669 28.2318 28.9945 28.7292 28.1555C29.1118 27.5314 29.4131 26.2749 27.7823 26.408C27.2897 26.4372 25.5824 26.4372 25.1998 26.3706ZM42.8085 20.1961L46.2996 6.86101C46.5244 6.26603 46.8305 6.59889 47.0552 6.92758C47.2848 7.25628 48.5712 9.10364 50.4698 10.1605C51.6415 10.8095 53.8366 12.3407 55.2379 14.1173C56.113 15.2199 56.6773 16.414 56.5004 17.554C56.29 18.9271 55.2474 19.7218 53.6405 20.2585C51.7754 20.8826 49.1547 21.1531 46.2183 21.5816C45.9935 23.1044 44.5158 26.6369 43.5306 27.6271C42.995 28.089 42.8802 27.7936 42.8802 27.5273C42.8802 27.5273 43.1863 20.8618 42.8085 20.1961ZM8.81065 16.2393C7.36638 19.339 6.98857 21.9186 5.92211 24.9518C4.86042 27.9891 2.05317 29.8365 0.838451 29.2415C-2.57616 27.3941 5.31474 16.9008 8.81065 16.2393ZM35.3336 21.7522C36.051 21.7189 39.2791 21.7189 40.0347 21.7813C40.5656 21.8146 41.2112 23.1336 40.9434 24.8852C40.8668 25.2139 40.2595 25.2139 40.1112 24.8852C39.9582 24.5524 39.3508 23.8617 39.0495 24.5524C38.6717 25.2805 36.9644 25.3471 36.5053 24.4234C36.3571 24.0614 36.1467 24.0489 35.6732 24.2278C35.4054 24.3277 34.9511 24.5232 34.2672 24.7562C33.7937 24.9143 33.4159 24.6564 33.4733 24.1904C33.5116 23.8617 33.9659 21.9478 35.3336 21.7522ZM114.807 34.1053C117.925 34.1053 119.092 36.1067 119.092 38.9276V44.7068C118.523 44.6611 117.954 44.5987 117.385 44.5987C116.816 44.5987 116.246 44.6652 115.677 44.7068V39.1148C115.677 37.1135 115.381 35.649 113.65 35.649C111.498 35.649 111.268 37.4755 111.268 38.8319V44.7068C110.699 44.6611 110.13 44.5987 109.561 44.5987C108.992 44.5987 108.423 44.6652 107.853 44.7068V34.2676C108.399 34.3092 108.944 34.3716 109.513 34.3716C110.058 34.3716 110.603 34.3092 111.144 34.2676L111.306 35.5117C111.99 34.5422 113.544 34.1053 114.807 34.1053ZM95.1467 19.7176C98.2648 19.7176 99.4365 21.7189 99.4365 24.5399V30.3191C98.8674 30.2775 98.2983 30.2109 97.7292 30.2109C97.1601 30.2109 96.591 30.2775 96.0219 30.3191V24.7271C96.0219 22.7258 95.7254 21.2612 93.9941 21.2612C91.8421 21.2612 91.6125 23.0836 91.6125 24.4442V30.3191C91.0434 30.2775 90.4743 30.2109 89.9052 30.2109C89.3361 30.2109 88.767 30.2775 88.1979 30.3191V19.8799C88.7431 19.9215 89.2883 19.9881 89.8574 19.9881C90.4026 19.9881 90.9478 19.9215 91.493 19.8799L91.6508 21.1239C92.3251 20.1545 93.8794 19.7176 95.1467 19.7176ZM120.154 19.7134C123.267 19.7134 124.439 21.7148 124.439 24.5357V30.3149C123.87 30.2692 123.3 30.2068 122.731 30.2068C122.162 30.2068 121.593 30.2692 121.024 30.3149V24.7188C121.024 22.7175 120.728 21.2529 118.996 21.2529C116.844 21.2529 116.615 23.0753 116.615 24.4317V30.3066C116.046 30.2609 115.477 30.1984 114.907 30.1984C114.338 30.1984 113.769 30.2609 113.2 30.3066V19.8716C113.745 19.9132 114.29 19.9797 114.86 19.9797C115.4 19.9797 115.95 19.9132 116.49 19.8716L116.653 21.1156C117.332 20.1462 118.886 19.7134 120.154 19.7134ZM144.965 19.7134C148.083 19.7134 149.254 21.7148 149.254 24.5357V30.3149C148.685 30.2692 148.116 30.2068 147.547 30.2068C146.978 30.2068 146.409 30.2692 145.84 30.3149V24.7188C145.84 22.7175 145.543 21.2529 143.812 21.2529C141.66 21.2529 141.43 23.0753 141.43 24.4317V30.3066C140.861 30.2609 140.292 30.1984 139.728 30.1984C139.159 30.1984 138.59 30.2609 138.021 30.3066V19.8716C138.566 19.9132 139.111 19.9797 139.68 19.9797C140.225 19.9797 140.77 19.9132 141.316 19.8716L141.473 21.1156C142.143 20.1462 143.697 19.7134 144.965 19.7134ZM146.007 44.6694C145.716 44.6813 145.426 44.6418 145.153 44.5532C144.88 44.4646 144.631 44.3288 144.42 44.1539C144.21 43.9791 144.042 43.7689 143.927 43.536C143.813 43.3031 143.754 43.0525 143.754 42.7992C143.754 42.5459 143.813 42.2952 143.927 42.0623C144.042 41.8294 144.21 41.6192 144.42 41.4444C144.631 41.2695 144.88 41.1337 145.153 41.0451C145.426 40.9565 145.716 40.917 146.007 40.9289C146.577 40.9289 147.124 41.126 147.527 41.4767C147.93 41.8274 148.157 42.3031 148.157 42.7992C148.157 43.2952 147.93 43.7709 147.527 44.1216C147.124 44.4724 146.577 44.6694 146.007 44.6694ZM144.252 42.7929C144.252 43.6958 145.022 44.3573 146.012 44.3573C146.246 44.3586 146.478 44.3186 146.694 44.2399C146.91 44.1611 147.105 44.0452 147.268 43.899C147.431 43.7529 147.559 43.5796 147.643 43.3895C147.727 43.1994 147.766 42.9965 147.757 42.7929C147.764 42.5902 147.723 42.3884 147.639 42.1996C147.554 42.0107 147.426 41.8386 147.263 41.6935C147.1 41.5484 146.906 41.4332 146.691 41.3547C146.476 41.2763 146.245 41.2362 146.012 41.2368C145.778 41.2351 145.546 41.2743 145.329 41.3522C145.113 41.4301 144.917 41.5451 144.753 41.6903C144.589 41.8355 144.46 42.0079 144.374 42.1973C144.288 42.3868 144.246 42.5893 144.252 42.7929ZM145.553 42.9427V43.8789H145.175V41.7195H146.122C146.71 41.7195 147.002 41.9067 147.002 42.3311C147.002 42.718 146.72 42.8845 146.356 42.9261L147.064 43.8789H146.643L145.988 42.9427H145.553ZM145.553 42.6639H146.002C146.323 42.6639 146.605 42.6431 146.605 42.3144C146.605 42.0481 146.323 41.9982 146.065 41.9982H145.553V42.6639Z" fill="black"/>
</svg>
