<svg width="51" height="53" viewBox="0 0 51 53" fill="none" xmlns="http://www.w3.org/2000/svg">
<g clip-path="url(#clip0_49_185)">
<path d="M44.625 0H6.375C2.85812 0 0 2.97021 0 6.625V46.375C0 50.0276 2.85812 53 6.375 53H44.625C48.1398 53 51 50.0276 51 46.375V6.625C51 2.97021 48.1398 0 44.625 0Z" fill="#3B5999"/>
<path d="M35.0625 26.5V19.875C35.0625 18.0465 36.4905 18.2188 38.25 18.2188H41.4375V9.9375H35.0625C29.7797 9.9375 25.5 14.3851 25.5 19.875V26.5H19.125V34.7812H25.5V53H35.0625V34.7812H39.8438L43.0312 26.5H35.0625Z" fill="white"/>
</g>
<defs>
<clipPath id="clip0_49_185">
<rect width="51" height="53" fill="white"/>
</clipPath>
</defs>
</svg>
