<svg width="164" height="63" viewBox="0 0 164 63" fill="none" xmlns="http://www.w3.org/2000/svg">
<path d="M45.5707 27.3495H75.349C75.349 27.3495 79.314 30.585 81.9899 30.585C84.6659 30.585 88.6309 27.3495 88.6309 27.3495H118.523C118.523 27.3495 120.253 0 81.9899 0C44.1348 0 45.5707 27.3495 45.5707 27.3495Z" fill="white"/>
<path d="M47.1372 26.0952H116.794C116.794 26.0952 116.663 1.26611 82.0552 1.26611C46.9577 1.26611 47.1372 26.0952 47.1372 26.0952Z" fill="#013088"/>
<path d="M71.3024 2.36792C70.715 6.67022 70.7966 10.9725 70.9271 15.2631C65.2978 13.5867 59.6522 12.4144 54.0228 11.5118C57.2046 15.1576 60.5822 18.7213 64.4656 22.0272C58.5916 23.1409 52.7991 24.4069 47.284 26.1185H116.696C111.507 24.4304 105.356 23.3167 99.5142 22.0272C102.99 18.8503 106.482 16.0016 109.957 11.5118C104.132 12.4027 98.5026 13.6805 93.0528 15.2631C93.2322 11.0194 93.3302 6.77573 92.6775 2.36792C88.5167 5.60344 85.4165 9.22581 81.9083 12.7075C78.906 9.26098 75.2511 5.81445 71.3024 2.36792Z" fill="#B5C4EB"/>
<path d="M65.5915 26.1186C61.2186 23.8678 57.5636 21.7342 54.7571 19.7765C59.6032 19.2607 64.1067 19.2372 68.9528 19.2255C66.7989 16.072 66.3421 12.86 65.1999 9.58929C69.5075 11.5001 74.0763 13.153 77.2091 15.5562C77.9597 12.2387 79.8198 8.81558 82.0226 5.62695C83.9153 8.89764 85.906 12.1683 86.8034 15.3101C90.7358 12.8014 94.6518 11.3243 98.5842 9.68307C97.752 13.2468 96.6098 16.541 94.8803 19.331C99.5958 19.2489 104.311 19.2021 109.206 19.882C105.568 22.5079 101.945 24.2546 98.3068 26.1303L65.5915 26.1186Z" fill="white"/>
<path d="M81.9907 29.1431V15.1929H70.9761C71.0413 23.3286 76.4915 27.373 81.9907 29.1431Z" fill="#E01A33"/>
<path d="M81.941 29.1431V15.1929H92.9556C92.8903 23.3286 87.4401 27.373 81.941 29.1431Z" fill="#B20032"/>
<path d="M0.911484 32.8711V46.6689H4.69724V41.0068H12.5788V38.6739H4.69724V35.1922H13.2152L14.3574 32.8594H0.911484V32.8711Z" fill="#013088"/>
<path d="M102.761 32.8708V46.6687H106.547V46.657H115.261V44.3358H106.547V40.6314H114.429V38.3103H106.547V35.2037H115.081L116.224 32.8708H102.761Z" fill="#013186"/>
<path d="M26.431 32.9297L18.7131 46.8565H22.8739L24.3588 43.9023H32.044L33.4799 46.7979H37.8365L30.1513 32.9414H26.431V32.9297ZM28.1443 36.5872L31.0487 41.7687H25.2725L28.1443 36.5872Z" fill="#013088"/>
<path d="M46.2887 32.8708V46.7976H50.3515V41.4168H52.1627L57.2536 46.8328H62.0181L56.2256 40.9714C56.2256 40.9714 60.2069 40.1508 60.2069 37.349C60.2069 32.9764 54.1534 32.8708 54.1534 32.8708H46.2887ZM50.3352 35.063H53.5986C53.5986 35.063 56.4214 35.2272 56.4214 37.22C56.4214 39.2481 53.5333 39.3419 53.5333 39.3419H50.3026L50.3352 35.063Z" fill="#013088"/>
<path d="M125.572 32.8708V46.7976H129.635V41.4168H131.446L136.537 46.8328H141.302L135.526 40.9831C135.526 40.9831 139.507 40.1625 139.507 37.3607C139.507 32.9881 133.453 32.8826 133.453 32.8826H125.572V32.8708ZM129.619 35.063H132.882C132.882 35.063 135.705 35.2272 135.705 37.22C135.705 39.2481 132.817 39.3419 132.817 39.3419H129.586L129.619 35.063Z" fill="#013088"/>
<path d="M75.1042 38.1464L74.2231 46.8447H70.5192L72.1346 32.9414H76.0017L81.8105 42.0384L87.2113 32.9414H90.7684L92.5469 46.7861H88.5167L87.864 38.0878L82.2184 46.7861H80.5214L75.1042 38.1464Z" fill="#013088"/>
<path d="M148.84 45.2738L150.7 43.2458C154.225 44.9222 156.82 44.9573 159.039 43.8554C159.512 42.73 159.153 42.1321 158.419 41.7218L152.071 39.893C149.33 38.3222 148.302 36.4817 151.353 33.9847C154.111 32.3083 157.668 32.2849 161.927 33.6916L161.764 36.2941C159.316 35.6728 157.032 34.3833 154.176 35.4852C152.756 36.8216 154.029 37.443 154.91 37.8767C158.974 38.92 162.058 39.7875 162.808 40.9833C163.885 43.3513 162.645 44.4767 161.666 45.4497C157.064 48.0405 151.875 46.8095 148.84 45.2738Z" fill="#013088"/>
<path d="M27.9159 54.3123H30.0861V61.9087H27.9159V54.3123Z" fill="#E21931"/>
<path d="M37.3308 56.7623V61.85H35.4869V54.4295H37.2492L42.4383 59.482V54.3708H44.1191V61.9087H42.5526L37.3308 56.7623Z" fill="#E21931"/>
<path d="M103.414 56.7623V61.85H101.57V54.4295H103.333L108.522 59.482V54.3708H110.202V61.9087H108.636L103.414 56.7623Z" fill="#E21931"/>
<path d="M48.9809 61.1113L50.009 59.9859C51.9671 60.9121 53.0604 61.0293 54.3006 60.408C54.8064 60.1032 54.9533 59.5639 54.3985 59.224L50.7759 58.0634C49.1115 57.4538 48.6709 56.2112 50.368 54.8161C51.9018 53.8783 53.8763 53.8666 56.2587 54.652L56.1608 56.1057C54.7901 55.754 52.9462 55.0858 52.0324 55.6954C51.3307 56.2229 51.7223 56.6098 52.2119 56.8442C54.4801 57.4186 56.3403 58.0517 56.7483 58.7199C57.352 60.0328 56.5198 60.701 55.965 61.2403C53.7621 62.5767 50.678 61.9671 48.9809 61.1113Z" fill="#E21931"/>
<path d="M65.8528 62.0259C61.7897 62.0259 61.4307 59.4469 61.4307 59.4469V54.3006H63.6499V59.4352C63.6499 59.4352 63.7315 60.7481 65.7876 60.7481C67.5989 60.7481 67.9578 59.5641 67.9578 59.5641V54.2419H69.9486V59.3883C69.9649 59.3883 70.0139 62.0259 65.8528 62.0259Z" fill="#E21931"/>
<path d="M75.3327 54.2537V61.897H77.5682V58.9428H78.5636L81.354 61.9204H83.9648L80.7992 58.7084C80.7992 58.7084 82.9858 58.2512 82.9858 56.7155C82.9858 54.3123 79.6569 54.2537 79.6569 54.2537H75.3327ZM77.5519 55.4611H79.3469C79.3469 55.4611 80.8971 55.5432 80.8971 56.6451C80.8971 57.7588 79.3142 57.8057 79.3142 57.8057H77.5519V55.4611Z" fill="#E21931"/>
<path d="M91.3561 54.3708L87.0971 62.0376H89.398L90.2139 60.4081H94.4402L95.2235 62.0024H97.6222L93.3958 54.3708H91.3561ZM92.3025 56.3872L93.9017 59.2476H90.7197L92.3025 56.3872Z" fill="#E21931"/>
<path d="M115.211 58.2511C115.178 56.1292 116.68 54.2301 120.563 54.1363C121.82 54.1011 123.549 54.6756 123.549 54.6756L123.68 56.1527C123.68 56.1527 121.755 55.3907 120.563 55.4844C118.621 55.6251 117.137 56.2699 117.137 58.3097C117.137 59.6461 118.605 60.6777 120.433 60.6777C121.673 60.6777 123.174 60.0564 123.174 60.0564L123.892 61.2638C123.892 61.2638 121.999 62.0024 120.498 62.0024C117.708 61.9906 115.244 60.7011 115.211 58.2511Z" fill="#E21931"/>
<path d="M129.031 54.3708V61.8735H135.852V60.6074H131.104V58.5911H135.395V57.325H131.104V55.6369H135.754L136.375 54.3708H129.031Z" fill="#E21931"/>
<path d="M158.336 29.8581L158.647 29.8347C158.663 29.9284 158.695 29.9988 158.744 30.0574C158.793 30.116 158.891 30.1629 159.006 30.1981C159.12 30.2332 159.25 30.2567 159.397 30.2567C159.528 30.2567 159.642 30.245 159.74 30.2215C159.838 30.1981 159.903 30.1512 159.952 30.1043C160.001 30.0574 160.017 30.0105 160.017 29.9519C160.017 29.8933 160.001 29.8464 159.952 29.7995C159.903 29.7526 159.838 29.7174 159.724 29.694C159.658 29.6705 159.511 29.6471 159.267 29.6002C159.038 29.565 158.875 29.5181 158.777 29.483C158.663 29.4361 158.565 29.3775 158.5 29.3189C158.434 29.2485 158.418 29.1782 158.418 29.0961C158.418 29.0023 158.451 28.9203 158.532 28.8382C158.598 28.7562 158.712 28.6975 158.842 28.6507C158.989 28.6038 159.136 28.592 159.299 28.592C159.495 28.592 159.658 28.6155 159.789 28.6624C159.936 28.7093 160.05 28.7679 160.115 28.8499C160.197 28.932 160.229 29.0258 160.246 29.1313L159.919 29.143C159.903 29.0258 159.838 28.9437 159.74 28.8851C159.642 28.8265 159.495 28.7913 159.299 28.7913C159.103 28.7913 158.957 28.8148 158.859 28.8734C158.761 28.932 158.712 28.9906 158.712 29.061C158.712 29.1313 158.744 29.1782 158.81 29.2251C158.875 29.272 159.038 29.3071 159.316 29.354C159.593 29.4009 159.772 29.4361 159.87 29.4713C160.017 29.5181 160.131 29.5768 160.197 29.6588C160.262 29.7292 160.295 29.8229 160.295 29.9167C160.295 30.0105 160.262 30.1043 160.18 30.1864C160.099 30.2684 159.985 30.3387 159.854 30.3856C159.707 30.4325 159.544 30.456 159.365 30.456C159.136 30.456 158.94 30.4325 158.793 30.3856C158.647 30.3387 158.516 30.2684 158.434 30.1746C158.353 30.0808 158.336 29.9871 158.336 29.8581Z" fill="#013088"/>
<path d="M160.8 30.4442V28.6272H161.306L161.91 29.9167C161.959 30.0339 162.008 30.1277 162.024 30.1863C162.057 30.116 162.106 30.0222 162.155 29.8933L162.759 28.6272H163.215V30.4442H162.889V28.9203L162.155 30.4442H161.845L161.11 28.8968V30.4442H160.8Z" fill="#013088"/>
</svg>
