<svg width="350" height="37" viewBox="0 0 350 37" fill="none" xmlns="http://www.w3.org/2000/svg">
<path fill-rule="evenodd" clip-rule="evenodd" d="M0.942871 6.10669H152.012V36.2613H0.942871V6.10669Z" fill="#878788"/>
<path fill-rule="evenodd" clip-rule="evenodd" d="M10.7425 29.2838H18.5159V25.6677H10.7425V29.2838ZM24.6005 25.6677L27.6428 29.2838H37.2758L33.8961 25.6677H24.6005ZM37.9505 25.6677C39.81 28.037 43.527 29.2838 47.7501 29.2838C51.8065 29.2838 56.0296 28.4087 57.8891 25.6677H49.1016C48.7642 25.7936 48.5956 25.7936 48.2582 25.7936C47.9188 25.7936 47.5815 25.7936 47.4128 25.6677H37.9505ZM61.6082 25.6677V33.7676H69.3816V27.4136C70.733 28.6604 72.2532 29.2823 74.4501 29.2823C77.4924 29.2823 80.7014 28.2843 82.3922 25.6663L61.6082 25.6677ZM86.2779 25.6677V33.7676H94.0513V27.4136C95.4028 28.6604 96.923 29.2823 99.1198 29.2823C102.162 29.2823 105.373 28.2843 107.062 25.6663L86.2779 25.6677ZM111.626 25.6677C113.486 28.037 117.203 29.2838 121.426 29.2838C125.482 29.2838 129.705 28.4087 131.734 25.6677H122.777C122.609 25.7936 122.271 25.7936 121.934 25.7936C121.597 25.7936 121.257 25.7936 121.089 25.6677H111.626ZM135.79 28.9091H143.564V25.6677H135.79V28.9091Z" fill="white"/>
<path fill-rule="evenodd" clip-rule="evenodd" d="M18.5159 25.6676V18.816L24.5985 25.6676H33.8921L26.9641 18.1926L36.4264 9.47082H27.3015L18.5139 18.1926V9.47082H10.7405V25.6691L18.5159 25.6676ZM47.4127 25.6676C45.7219 25.4189 44.3705 24.4208 44.3705 22.9267H59.2406C59.4093 17.6936 55.0155 14.0805 47.7501 14.0805C41.4988 14.0805 36.597 17.0702 36.597 21.8072C36.597 23.3013 37.1031 24.674 37.9485 25.6691L47.4127 25.6676ZM57.8911 25.6676C58.2285 25.2959 58.3972 24.9213 58.5658 24.5467H51.1318C50.7944 25.1701 49.949 25.5447 49.1036 25.6676H57.8911ZM82.3922 25.6676C83.0669 24.6725 83.575 23.3013 83.575 21.557C83.575 17.5678 80.7014 14.079 74.7874 14.079C72.5906 14.079 69.7169 14.8268 68.7048 16.5712L68.5361 14.4522H61.6081V25.6662L82.3922 25.6676ZM107.064 25.6676C107.909 24.6725 108.247 23.3013 108.247 21.557C108.247 17.5678 105.375 14.079 99.4592 14.079C97.2623 14.079 94.3887 14.8268 93.3766 16.5712V14.4522H86.2799V25.6662L107.064 25.6676ZM121.089 25.6676C119.398 25.4189 118.046 24.4208 118.046 22.9267H132.916C133.085 17.6936 128.693 14.0805 121.426 14.0805C115.175 14.0805 110.273 17.0702 110.273 21.8072C110.273 23.3013 110.779 24.674 111.624 25.6691L121.089 25.6676ZM131.736 25.6676L132.242 24.5467H124.806C124.468 25.1701 123.623 25.5447 122.777 25.6676H131.736ZM135.79 25.6676H143.564V9.09619H135.79V25.6676ZM44.3705 20.0628C44.3705 18.4414 45.7239 17.5692 48.0895 17.5692C49.949 17.5692 51.4691 18.6916 51.4691 20.0628H44.3705ZM72.4219 24.9228C70.3957 24.9228 69.2109 23.5501 69.2109 21.5584C69.2109 19.5638 70.5624 18.317 72.4219 18.317C74.4501 18.317 75.8015 19.3151 75.8015 21.6814C75.8015 23.5501 74.4501 24.9228 72.4219 24.9228ZM97.0936 24.9228C95.0654 24.9228 93.8826 23.5501 93.8826 21.5584C93.8826 19.5638 95.2341 18.317 97.0936 18.317C99.1198 18.317 100.473 19.3151 100.473 21.6814C100.473 23.5501 99.1218 24.9228 97.0936 24.9228ZM118.046 20.0628C118.046 18.4414 119.4 17.5692 121.765 17.5692C123.625 17.5692 125.145 18.6916 125.145 20.0628H118.046Z" fill="white"/>
<path fill-rule="evenodd" clip-rule="evenodd" d="M161.476 28.9091H170.432V21.1838H161.476V28.9091ZM173.641 21.1838V28.9091H181.415V21.5585V21.1838H173.641ZM187.16 21.1838V28.9091H194.935V21.1838H187.16ZM197.978 21.1838C200.849 23.7989 208.791 22.9267 208.791 24.797C208.791 25.9208 207.604 26.1696 206.424 26.1696C205.578 26.1696 204.904 25.9208 204.397 25.6691C203.889 25.4204 203.723 24.9228 203.723 24.4223H196.289C196.626 28.2872 201.526 29.2837 206.088 29.2837C213.185 29.2837 216.565 27.2891 216.565 24.2994C216.565 22.8053 215.719 21.9302 214.538 21.1838H197.978ZM218.253 21.1838V23.1755C218.253 27.4135 220.958 29.2837 225.18 29.2837C228.393 29.2837 230.25 28.7832 232.28 26.7916V28.9091H239.544V21.1838H231.772V21.4326C231.772 23.5502 230.927 24.797 228.73 24.797C226.868 24.797 226.025 24.1736 226.025 22.1819V21.1838H218.253ZM241.913 21.1838V28.9091H249.685V23.9248C249.685 22.678 250.022 21.8072 250.359 21.1838H241.913ZM259.316 21.1838C257.625 21.9302 256.444 23.0526 256.444 24.9228C256.444 27.9125 259.653 29.2837 263.37 29.2837C266.246 29.2837 268.611 28.7832 270.808 27.2891L271.145 28.9091H279.254V28.5345C278.242 28.0369 278.071 27.5364 278.071 26.7916V21.1838H259.316ZM280.778 21.1838V28.9091H288.55V21.5585V21.1838H280.778ZM294.293 21.1838V28.9091H302.068V21.1838H294.293ZM303.759 21.1838V21.8072C303.759 26.6657 308.492 29.2837 314.91 29.2837C320.318 29.2837 325.049 27.6637 325.724 23.3014H317.953C317.615 24.4223 316.937 25.4189 314.91 25.4189C312.547 25.4189 311.531 24.0492 311.531 21.8058V21.1824L303.759 21.1838ZM327.077 21.1838V21.8072C327.077 26.6657 331.977 29.2837 338.233 29.2837C342.795 29.2837 347.695 28.0369 349.046 24.5482H341.608C341.104 25.4204 339.921 25.795 338.737 25.795C336.71 25.795 334.853 24.674 334.853 22.9282H349.721C349.721 22.3048 349.721 21.8073 349.554 21.1853H327.077V21.1838ZM266.92 26.0423C265.4 26.0423 264.386 25.5447 264.386 24.7955C264.386 22.9267 267.766 23.4258 270.3 22.4292C270.467 24.4223 269.623 26.0423 266.92 26.0423Z" fill="#536167"/>
<path fill-rule="evenodd" clip-rule="evenodd" d="M161.476 21.1838H170.432V9.09621H161.476V21.1838ZM181.415 21.1838C181.415 19.5638 182.093 18.5658 184.457 18.5658C186.654 18.5658 187.158 19.8126 187.158 21.1838H194.933V20.1858C194.933 16.198 192.399 14.0805 187.328 14.0805C184.286 14.0805 182.429 14.9527 180.74 16.6971V14.4537H173.641V21.1838H181.415ZM214.536 21.1838C210.986 19.3151 204.231 19.6897 204.231 18.1926C204.231 17.4449 205.076 17.1961 206.424 17.1961C207.102 17.1961 207.606 17.3205 207.948 17.5693C208.452 17.8195 208.623 18.0683 208.793 18.5658H215.89C215.382 14.7039 210.311 14.0805 206.088 14.0805C202.034 14.0805 196.793 15.0771 196.793 18.8175C196.793 19.8126 197.301 20.5604 197.979 21.1838H214.536ZM218.253 21.1838H226.025V14.4537H218.253V21.1838ZM231.772 21.1838H239.544V14.4537H231.772V21.1838ZM250.359 21.1838C251.205 20.0629 252.556 19.6897 254.584 19.6897C255.092 19.6897 255.6 19.8126 256.108 19.8126V14.0805H255.092C252.05 14.0805 250.193 15.0771 249.178 17.3205L249.012 14.4551H241.915V21.1853H250.359V21.1838ZM278.071 21.1838V20.0629C278.071 16.5727 277.563 14.0805 268.272 14.0805C260.496 14.0805 257.625 15.8249 257.625 18.8175H265.059C265.229 17.6936 266.75 17.4449 267.764 17.4449C268.609 17.4449 270.298 17.5692 270.298 18.6917C270.298 20.5604 263.539 19.6897 259.314 21.1838H278.071ZM288.55 21.1838C288.72 19.5638 289.395 18.5658 291.592 18.5658C293.789 18.5658 294.293 19.8126 294.293 21.1838H302.068V20.1858C302.068 16.198 299.701 14.0805 294.634 14.0805C291.592 14.0805 289.73 14.9527 287.875 16.6971V14.4537H280.778V21.1838H288.55ZM311.531 21.1838C311.531 19.6897 312.209 17.9424 314.91 17.9424C315.756 17.9424 316.434 18.0683 316.936 18.4414C317.444 18.8175 317.615 19.3151 317.782 19.937H325.557C325.049 15.699 320.149 14.0805 314.91 14.0805C308.659 14.0805 304.097 16.6971 303.759 21.1838H311.531ZM349.554 21.1838C348.876 16.9458 344.651 14.0805 338.233 14.0805C332.148 14.0805 327.586 16.8214 327.077 21.1838H349.554ZM334.853 20.0629C334.853 18.4414 336.202 17.5693 338.57 17.5693C340.261 17.5693 341.95 18.6917 341.95 20.0629H334.853ZM46.3986 -0.000244141H54.8488L44.8785 9.46937H36.599L46.3986 -0.000244141Z" fill="#536167"/>
</svg>
