<svg width="180" height="36" viewBox="0 0 180 36" fill="none" xmlns="http://www.w3.org/2000/svg">
<path fill-rule="evenodd" clip-rule="evenodd" d="M104.861 35.5034H107.044V31.4356H109.351C110.999 31.4356 111.089 31.9887 111.089 33.4087C111.089 34.4833 111.178 35.0206 111.327 35.5034H113.8V35.2383C113.323 35.0621 113.323 34.6851 113.323 33.1623C113.323 31.2179 112.846 30.9012 111.968 30.5242C113.027 30.1779 113.623 29.1923 113.623 28.0425C113.623 27.1421 113.102 25.1146 110.258 25.1146H104.86L104.861 35.5034ZM123.501 33.3503H127.438L128.121 35.5034H130.543L126.785 25.1155H124.214L120.412 35.5034H122.759L123.501 33.3503ZM46.5169 15.4411V16.5058C46.5169 19.605 46.8718 20.919 47.9814 21.9006C49.1041 22.9109 51.0527 23.2147 56.0147 23.2147C60.7916 23.2147 62.7961 23.0346 63.7632 22.5359C65.4128 21.6503 66.081 19.7435 66.081 15.8409C66.081 12.714 65.6834 11.1931 64.5738 10.1828C63.5497 9.27049 62.5123 9.10425 57.2371 8.86875C53.8535 8.73022 52.5314 8.63325 52.1053 8.46701C51.608 8.30176 51.3944 7.85846 51.3944 7.02826C51.3944 5.36884 51.7219 5.24417 55.8448 5.24417C59.2996 5.24417 59.8966 5.29958 60.3095 5.64492C60.6654 5.94969 60.7356 6.25347 60.7926 7.48442H65.485C65.5135 7.05497 65.5135 6.58496 65.5135 6.44742C65.5135 3.79058 65.1301 2.38052 64.1629 1.4672C63.0402 0.388636 61.3621 0.0838635 56.7123 0.0838635C52.8742 0.0838635 50.6703 0.222394 49.7316 0.498468C47.5278 1.16243 46.6603 3.08604 46.6603 7.35974C46.6603 12.2984 47.7688 13.7094 51.7219 13.8895L53.0155 13.945L55.6028 14.1241L59.441 14.318C61.0051 14.3596 61.3611 14.691 61.3611 16.0328C61.3611 18.0247 61.3611 18.0247 56.1428 18.0247C52.7023 18.0247 52.1765 17.9554 51.7209 17.5547C51.3375 17.2084 51.2368 16.7789 51.2368 15.4371H46.5169V15.4411ZM86.0062 22.8694H91.5367L83.1626 0.432169H75.5992L67.1244 22.8694H72.6987L74.0635 19.0657H84.6271L86.0062 22.8694ZM94.01 0.432169V22.8694H98.8723V15.0957H110.302V9.9493H98.8723V5.71617H110.9V0.432169H94.01ZM114.412 0.432169V22.8694H132.2V17.4884H119.203V13.9202H131.458V8.98056H119.203V5.71617H132.098V0.432169H114.412ZM150.652 14.224C150.638 17.5586 150.567 17.5854 145.221 17.5854C140.089 17.5854 140.017 17.5161 140.017 11.7611C140.017 8.37202 140.202 7.05794 140.784 6.38013C141.255 5.84084 142.151 5.71617 145.192 5.71617C148.263 5.71617 149.671 5.91011 150.041 6.35242C150.325 6.68391 150.368 6.98868 150.424 8.46899H155.287V7.36272C155.287 3.76584 154.804 2.10643 153.44 1.1377C152.345 0.335202 150.851 0.0868304 146.587 0.0868304C138.213 0.0868304 136.463 0.667676 135.596 3.69756C135.24 4.94237 135.142 6.79573 135.142 11.8036C135.142 14.6673 135.198 16.5068 135.269 17.5161C135.454 19.8118 135.938 21.0566 136.989 21.9016C138.283 22.9396 140.302 23.2157 146.557 23.2157C150.112 23.2157 151.86 23.0089 153.155 22.427C154.931 21.6246 155.6 19.978 155.6 16.3406C155.6 16.0091 155.57 15.4965 155.542 14.224H150.652ZM168.216 0.0858414C161.52 0.0858414 160.042 0.334211 158.819 1.63443C157.595 2.94949 157.241 5.24516 157.241 11.4979C157.241 18.0969 157.567 20.3095 158.819 21.6513C160.042 22.9792 161.52 23.2147 168.26 23.2147C174.884 23.2147 176.392 22.9792 177.615 21.6513C178.836 20.351 179.192 18.0969 179.192 11.6364C179.192 5.20459 178.836 2.94949 177.615 1.63443C176.392 0.335201 174.914 0.0858414 168.216 0.0858414ZM20.6036 -0.000244141C8.33644 -0.000244141 5.60476 0.362902 3.35718 2.38546C1.10959 4.40011 0.455658 7.92377 0.455658 17.5478C0.455658 27.7011 1.07502 31.108 3.35718 33.1801C5.60476 35.2036 8.33643 35.5668 20.6971 35.5668C32.8453 35.5668 35.6105 35.2036 37.851 33.1801C40.0904 31.1585 40.7525 27.7011 40.7525 17.7536C40.7525 7.87429 40.0904 4.39912 37.851 2.38546C35.6105 0.362902 32.888 -0.000244141 20.6036 -0.000244141Z" fill="black"/>
<path fill-rule="evenodd" clip-rule="evenodd" d="M20.6037 6.25545L39.1905 19.8504V15.3857L20.6037 1.79077L2.01686 15.3857V19.8504L20.6037 6.25545Z" fill="white"/>
<path fill-rule="evenodd" clip-rule="evenodd" d="M27.4663 24.8524H8.26931C7.24315 15.7736 14.6998 12.8595 21.1812 13.0663C25.6774 13.2068 31.1489 14.4774 33.0242 19.3715H27.1877C26.1523 16.9789 23.5824 15.8894 20.7317 15.9715C17.8556 16.0537 14.8788 17.1926 14.5564 21.8393H33.7545C34.9332 30.836 27.6636 33.2959 21.8016 33.5611C17.0593 33.7758 10.7986 32.6854 9.17038 27.156H15.007C16.3728 29.6238 19.257 30.8528 21.8026 30.5985C24.5404 30.3254 28.103 29.3418 27.4663 24.8524ZM82.9348 14.1548H75.7832L78.8831 5.64697H79.836L82.9348 14.1548ZM168.216 5.91018C172.682 5.91018 173.207 6.021 173.747 6.92047C174.189 7.66755 174.329 8.94007 174.329 12.2737C174.329 14.9989 174.158 15.9676 173.604 16.5761C172.964 17.254 172.168 17.3786 168.259 17.3786C164.234 17.3786 163.467 17.2817 162.812 16.5761C162.244 15.9399 162.102 15.0275 162.102 12.247C162.102 9.38337 162.203 8.09701 162.487 7.32222C162.97 6.02101 163.425 5.91018 168.216 5.91018Z" fill="white"/>
<path fill-rule="evenodd" clip-rule="evenodd" d="M48.8641 35.5035H46.6298V25.1156H48.8641V35.5035ZM63.092 25.1156H65.1677V35.5035H62.9436L58.5898 28.095H58.5592V35.5035H56.4845V25.1156H58.8267L63.0625 32.3489H63.092V25.1156ZM74.5211 32.3083C74.5354 32.8882 74.8344 33.9875 76.7881 33.9875C77.8478 33.9875 79.0265 33.7421 79.0265 32.6408C79.0265 31.8294 78.221 31.6127 77.0809 31.3515L75.9368 31.0902C74.215 30.6994 72.5543 30.3234 72.5543 28.0327C72.5543 26.8749 73.1919 24.8474 76.6497 24.8474C79.9133 24.8474 80.7859 26.9175 80.8012 28.1929H78.6705C78.6105 27.7289 78.4326 26.6275 76.486 26.6275C75.6388 26.6275 74.6289 26.9333 74.6289 27.8743C74.6289 28.6857 75.3124 28.8599 75.7578 28.9608L78.3685 29.5852C79.8238 29.9335 81.1551 30.5114 81.1551 32.3796C81.1551 35.4946 77.8915 35.7677 76.9508 35.7677C73.0546 35.7677 72.3895 33.5977 72.3895 32.3083H74.5211ZM97.0377 31.868C97.0377 34.5991 95.3494 35.7677 92.6533 35.7677C91.6699 35.7677 90.2125 35.5381 89.2647 34.513C88.687 33.8767 88.4643 33.0386 88.4358 31.9966V25.1146H90.7027V31.8522C90.7027 33.2998 91.5672 33.9351 92.6096 33.9351C94.1453 33.9351 94.7707 33.2127 94.7707 31.9541V25.1146H97.0377V31.868Z" fill="black"/>
<path fill-rule="evenodd" clip-rule="evenodd" d="M107.045 29.6862V26.8958H109.828C111.136 26.8958 111.391 27.7091 111.391 28.2623C111.391 29.2943 110.824 29.6862 109.665 29.6862H107.045ZM125.462 27.4598H125.491L126.815 31.5702H124.095L125.462 27.4598Z" fill="white"/>
<path fill-rule="evenodd" clip-rule="evenodd" d="M144.127 25.1155H146.203V35.5034H143.981L139.625 28.095H139.594V35.5034H137.521V25.1155H139.863L144.1 32.3489H144.127V25.1155ZM160.78 28.5205C160.601 27.9 160.26 26.7324 158.419 26.7324C157.348 26.7324 155.775 27.4241 155.775 30.352C155.775 32.2113 156.531 33.8846 158.419 33.8846C159.653 33.8846 160.513 33.2058 160.78 31.9363H163.009C162.563 34.1874 161.048 35.7647 158.374 35.7647C155.536 35.7647 153.508 33.8975 153.508 30.3224C153.508 26.7027 155.655 24.8494 158.402 24.8494C161.596 24.8494 162.889 26.9907 163.008 28.5195L160.78 28.5205ZM178.188 26.9471H172.528V29.1528H177.727V30.9863H172.528V33.6689H178.44V35.5034H170.343V25.1155H178.188V26.9471Z" fill="black"/>
</svg>
