<?xml version="1.0" standalone="no"?>
<!DOCTYPE svg PUBLIC "-//W3C//DTD SVG 20010904//EN"
 "http://www.w3.org/TR/2001/REC-SVG-20010904/DTD/svg10.dtd">
<svg version="1.0" xmlns="http://www.w3.org/2000/svg"
 width="1024.000000pt" height="1024.000000pt" viewBox="0 0 1024.000000 1024.000000"
 preserveAspectRatio="xMidYMid meet">
<metadata>
Created by potrace 1.14, written by Peter Selinger 2001-2017
</metadata>
<g transform="translate(0.000000,1024.000000) scale(0.100000,-0.100000)"
fill="#000000" stroke="none">
<path d="M963 7372 c2 -1533 6 -2798 9 -2812 3 -14 9 -50 12 -80 12 -95 16
-125 31 -206 8 -44 17 -90 20 -104 13 -73 35 -172 42 -190 3 -8 7 -20 9 -27 1
-6 17 -58 34 -115 18 -57 33 -107 35 -113 2 -12 3 -13 72 -190 83 -210 209
-462 330 -660 103 -167 267 -405 285 -413 5 -2 8 -8 8 -13 0 -8 31 -47 68 -85
6 -7 12 -15 12 -19 0 -3 25 -36 56 -73 31 -37 69 -81 83 -98 119 -142 480
-512 610 -624 35 -30 79 -70 98 -88 19 -18 83 -72 141 -120 59 -47 113 -92
120 -99 7 -7 33 -27 57 -44 25 -18 45 -36 45 -41 0 -4 6 -8 14 -8 8 0 16 -3
18 -7 2 -5 30 -28 63 -52 33 -25 66 -52 73 -60 6 -8 12 -11 12 -5 0 5 4 4 8
-1 4 -6 52 -43 107 -83 55 -39 105 -76 112 -82 7 -5 14 -10 17 -10 3 0 43 -27
89 -60 47 -33 89 -60 96 -60 6 0 11 -4 11 -9 0 -5 14 -14 30 -21 17 -7 30 -16
30 -21 0 -5 7 -9 15 -9 8 0 15 -4 15 -8 0 -5 12 -15 28 -23 15 -7 45 -25 67
-40 35 -23 196 -120 280 -169 17 -9 57 -33 90 -53 122 -71 612 -327 630 -328
2 0 21 -7 41 -15 35 -15 38 -14 96 15 33 17 66 31 74 31 8 0 14 4 14 8 0 5 22
18 49 31 57 25 335 174 431 230 74 43 346 206 395 236 18 11 55 33 81 49 27
16 53 33 59 38 5 5 60 40 120 80 197 127 566 389 725 515 84 66 314 254 346
282 22 20 69 61 103 91 148 128 458 430 586 570 102 113 187 211 270 315 22
27 45 55 50 62 21 26 33 41 111 148 44 61 89 125 99 142 11 18 22 33 26 33 4
0 12 13 19 30 7 16 17 30 22 30 5 0 7 4 4 9 -4 5 -3 11 1 13 27 11 228 373
306 548 13 30 34 77 47 105 12 27 23 54 25 60 1 5 7 24 14 40 21 50 103 298
107 325 3 14 8 34 11 45 4 11 8 23 9 28 1 4 2 8 3 10 2 1 4 13 7 27 2 14 13
68 24 120 25 125 29 144 36 215 3 33 9 71 12 85 4 14 8 1266 9 2782 l3 2757
-27 -9 c-16 -5 -80 -25 -143 -45 -63 -20 -122 -38 -130 -40 -8 -2 -44 -13 -79
-24 -35 -12 -74 -23 -85 -25 -12 -3 -46 -12 -76 -22 -63 -20 -63 -20 -110 -33
-19 -5 -80 -21 -135 -36 -55 -15 -127 -34 -160 -42 -33 -8 -69 -17 -80 -20
-11 -2 -29 -6 -40 -9 -11 -2 -69 -15 -130 -28 -60 -14 -123 -27 -140 -30 -16
-3 -41 -8 -55 -11 -14 -4 -34 -8 -45 -9 -11 -2 -38 -6 -60 -10 -23 -3 -52 -9
-65 -11 -14 -3 -43 -8 -65 -11 -22 -2 -51 -7 -65 -9 -72 -13 -194 -25 -405
-40 -59 -5 -423 -5 -480 -1 -68 5 -188 16 -225 21 -19 2 -59 7 -89 10 -30 4
-63 9 -75 11 -12 2 -46 8 -76 14 -140 26 -208 40 -295 62 -44 11 -88 22 -99
24 -100 19 -585 176 -691 223 -11 5 -46 19 -78 31 l-58 23 -187 -73 c-103 -40
-200 -78 -217 -85 -16 -8 -43 -17 -60 -21 -16 -4 -39 -12 -50 -18 -11 -5 -22
-11 -25 -11 -3 -1 -70 -22 -150 -47 -171 -54 -276 -85 -310 -92 -14 -3 -83
-19 -155 -36 -71 -16 -146 -32 -165 -35 -20 -3 -47 -7 -60 -10 -25 -5 -60 -10
-145 -21 -81 -11 -105 -13 -210 -20 -55 -3 -102 -8 -104 -10 -2 -2 -10 1 -17
7 -7 5 -14 6 -17 2 -7 -11 -292 -3 -412 12 -16 2 -55 6 -85 9 -66 7 -339 55
-360 63 -8 3 -24 7 -35 8 -19 3 -176 43 -305 79 -30 8 -122 38 -205 66 -82 28
-154 52 -160 53 -9 2 -22 7 -90 33 -11 4 -22 8 -25 9 -21 7 -61 23 -152 60
-37 15 -70 26 -73 26 -3 -1 -18 5 -33 13 -48 25 -149 66 -164 66 -8 0 -18 4
-23 8 -6 5 -23 14 -38 20 l-28 12 4 -2788z m4084 2367 c87 -35 218 -82 218
-79 0 2 16 -4 100 -36 11 -4 25 -8 30 -9 6 -2 69 -21 140 -43 113 -35 156 -47
200 -57 6 -2 30 -8 55 -16 25 -7 54 -14 64 -16 11 -2 45 -10 75 -17 49 -12 75
-18 151 -32 8 -2 31 -6 50 -10 19 -3 46 -8 60 -11 14 -2 36 -6 50 -8 14 -3 45
-7 70 -10 25 -3 56 -8 70 -10 26 -4 107 -13 194 -21 240 -23 672 -17 881 12
22 3 60 7 85 10 49 4 102 11 110 14 3 2 8 2 12 1 4 0 31 4 60 9 64 11 114 20
148 25 54 9 269 52 320 65 19 5 46 11 60 14 14 3 35 7 48 10 12 4 30 8 40 10
9 2 37 9 62 16 25 7 54 14 65 16 24 4 232 61 374 103 57 17 108 28 113 24 6
-3 8 -14 5 -24 -3 -11 -1 -19 4 -19 4 0 5 -10 0 -22 -4 -13 -5 -35 0 -50 4
-15 4 -30 -1 -33 -5 -3 -5 -16 0 -30 6 -15 6 -25 0 -25 -5 0 -5 -12 0 -30 5
-17 5 -32 0 -35 -5 -3 -5 -16 0 -30 6 -15 6 -25 0 -25 -5 0 -5 -12 0 -30 5
-17 5 -32 0 -35 -5 -3 -5 -16 0 -30 6 -15 6 -25 0 -25 -5 0 -5 -12 0 -30 5
-17 5 -32 0 -35 -5 -3 -5 -16 0 -30 6 -15 6 -25 0 -25 -5 0 -5 -12 0 -30 5
-17 5 -32 0 -35 -5 -3 -5 -16 0 -30 6 -15 6 -25 0 -25 -5 0 -5 -12 0 -29 4
-16 6 -32 2 -35 -7 -7 -9 -66 -2 -66 6 0 3 -88 -4 -106 -3 -8 -2 -14 2 -14 8
0 6 -85 -2 -106 -3 -8 -2 -14 2 -14 8 0 6 -85 -2 -106 -3 -8 -2 -14 2 -14 8 0
6 -85 -2 -106 -3 -8 -2 -14 2 -14 8 0 6 -85 -2 -106 -3 -8 -2 -14 2 -14 8 0 6
-85 -2 -106 -3 -8 -2 -14 2 -14 8 0 6 -85 -2 -106 -3 -8 -2 -14 2 -14 8 0 6
-85 -2 -106 -3 -8 -2 -14 2 -14 8 0 6 -85 -2 -106 -3 -8 -1 -14 4 -14 5 0 5
-13 0 -30 -5 -16 -5 -30 -1 -30 4 0 5 -22 1 -48 -3 -27 -3 -61 1 -75 4 -15 3
-29 -1 -32 -5 -3 -5 -16 0 -30 6 -15 6 -25 0 -25 -5 0 -5 -12 0 -30 5 -17 5
-32 0 -35 -5 -3 -5 -16 0 -30 6 -15 6 -25 0 -25 -5 0 -5 -12 0 -30 5 -17 5
-32 0 -35 -5 -3 -5 -16 0 -30 6 -15 6 -25 0 -25 -5 0 -5 -12 0 -30 5 -17 5
-32 0 -35 -5 -3 -5 -16 0 -30 6 -15 6 -25 0 -25 -5 0 -5 -12 0 -30 5 -17 5
-32 0 -35 -5 -3 -5 -16 0 -30 6 -15 6 -25 0 -25 -5 0 -5 -12 0 -30 5 -17 5
-32 0 -35 -5 -3 -5 -16 0 -30 6 -15 6 -25 0 -25 -5 0 -5 -12 0 -30 5 -17 5
-32 0 -35 -5 -3 -5 -16 0 -30 6 -15 6 -25 0 -25 -5 0 -5 -12 0 -30 5 -17 5
-32 0 -35 -5 -3 -5 -16 0 -30 6 -15 6 -25 0 -25 -5 0 -5 -12 0 -30 5 -17 5
-32 0 -35 -5 -3 -5 -16 0 -30 6 -15 6 -25 0 -25 -5 0 -5 -12 0 -30 5 -17 5
-32 0 -35 -5 -3 -5 -16 0 -30 6 -15 6 -25 0 -25 -5 0 -5 -12 0 -29 4 -16 6
-32 2 -35 -7 -7 -9 -66 -2 -66 6 0 3 -88 -4 -106 -3 -8 -2 -14 2 -14 8 0 6
-85 -2 -106 -3 -8 -2 -14 2 -14 8 0 6 -85 -2 -106 -3 -8 -2 -14 2 -14 8 0 6
-85 -2 -106 -3 -8 -2 -14 2 -14 8 0 6 -85 -2 -106 -3 -8 -2 -14 2 -14 8 0 6
-85 -2 -106 -3 -8 -2 -14 2 -14 8 0 6 -85 -2 -106 -3 -8 -2 -14 2 -14 8 0 6
-85 -2 -106 -3 -8 -2 -14 2 -14 8 0 6 -85 -2 -106 -3 -8 -1 -14 4 -14 5 0 5
-13 0 -30 -5 -16 -5 -30 0 -30 4 0 4 -15 0 -34 -4 -19 -4 -40 1 -47 4 -7 4
-18 -1 -24 -5 -6 -5 -17 -1 -24 5 -8 5 -27 1 -42 -5 -17 -5 -29 0 -29 6 0 6
-10 0 -25 -5 -14 -5 -27 0 -30 5 -3 5 -18 0 -35 -5 -18 -5 -32 1 -36 5 -3 6
-10 3 -16 -4 -6 -8 -47 -10 -92 -1 -44 -5 -101 -8 -126 -7 -67 -18 -142 -23
-165 -2 -11 -6 -36 -9 -55 -2 -19 -7 -43 -10 -52 -3 -10 -8 -30 -10 -45 -3
-16 -17 -71 -30 -123 -84 -319 -224 -631 -447 -995 -52 -84 -273 -392 -332
-462 -109 -129 -220 -257 -259 -297 -25 -27 -46 -50 -46 -52 0 -6 -301 -302
-386 -380 -141 -129 -280 -248 -396 -342 -48 -39 -93 -75 -100 -82 -47 -39
-363 -275 -396 -295 -9 -5 -19 -13 -22 -16 -11 -13 -342 -236 -510 -344 -88
-57 -470 -285 -476 -285 -2 0 -21 -11 -42 -23 -20 -13 -91 -52 -157 -87 -66
-35 -121 -67 -123 -72 -2 -4 -9 -8 -15 -8 -7 0 -42 -16 -79 -34 l-67 -34 -148
75 c-81 41 -177 91 -213 111 -36 19 -90 49 -120 65 -30 16 -62 36 -71 43 -8 8
-19 14 -22 14 -4 0 -69 37 -144 83 -76 46 -149 90 -162 98 -14 8 -30 17 -35
21 -6 5 -99 66 -206 137 -107 71 -229 154 -270 184 -41 31 -90 66 -108 79 -18
13 -39 28 -45 33 -7 6 -39 30 -72 55 -33 25 -62 47 -65 50 -3 3 -25 21 -50 40
-25 19 -47 37 -50 40 -3 3 -25 21 -50 41 -25 20 -55 45 -67 55 -12 11 -32 28
-45 38 -192 157 -560 519 -728 717 -25 29 -52 60 -60 69 -8 8 -40 47 -70 85
-30 39 -59 75 -63 80 -5 6 -40 53 -78 105 -39 52 -77 103 -85 113 -8 9 -14 21
-14 26 0 4 -9 16 -20 26 -11 10 -20 22 -20 27 0 4 -16 30 -35 57 -19 26 -35
53 -35 59 0 6 -4 12 -8 14 -13 5 -226 388 -227 408 0 3 -13 32 -29 65 -16 33
-32 69 -36 80 -5 11 -15 36 -23 55 -50 113 -153 431 -172 530 -5 26 -8 41 -25
125 -13 67 -18 100 -34 218 -11 74 -17 148 -21 241 -2 54 -6 100 -8 103 -3 2
-1 20 3 39 4 19 4 37 -1 40 -5 3 -5 12 0 23 5 9 6 23 1 31 -4 7 -4 24 0 36 6
14 5 26 0 29 -6 4 -7 13 -1 24 5 9 6 23 1 31 -4 7 -4 24 0 36 6 14 5 26 0 29
-6 4 -7 13 -1 24 5 9 6 23 1 31 -4 7 -4 24 0 36 6 14 5 26 0 29 -6 4 -7 13 -1
24 5 9 6 23 1 31 -4 7 -4 24 0 36 6 14 5 26 0 29 -6 4 -7 13 -1 24 5 9 6 23 1
31 -4 7 -4 24 0 36 6 14 5 26 0 29 -6 4 -7 13 -1 24 5 9 6 23 1 31 -4 7 -4 24
0 36 6 14 5 26 0 29 -6 4 -7 13 -1 24 5 9 6 23 1 31 -4 7 -4 24 0 36 6 14 5
26 0 29 -6 4 -7 13 -1 24 5 9 6 23 1 31 -4 7 -4 24 0 36 6 14 5 26 0 29 -6 4
-7 13 -1 24 5 9 6 23 1 31 -4 7 -4 24 0 36 6 14 5 26 0 29 -6 4 -7 13 -1 24 5
9 6 23 1 31 -4 7 -4 24 0 36 6 14 5 26 0 29 -6 4 -7 13 -1 24 5 9 6 23 1 31
-4 7 -4 24 0 36 6 14 5 26 0 29 -6 4 -7 13 -1 24 6 10 6 23 1 31 -5 8 -5 21 0
31 5 9 7 19 3 22 -5 6 -7 70 -3 92 1 6 1 14 0 20 -4 23 -2 167 4 172 3 3 1 14
-4 24 -6 10 -6 20 -1 23 5 3 5 21 1 41 -4 20 -4 38 1 41 5 3 7 10 3 15 -7 12
-8 168 0 176 3 3 1 14 -4 24 -6 10 -6 20 -1 23 5 3 5 21 1 41 -4 20 -4 38 1
41 5 3 7 10 3 15 -7 12 -8 168 0 176 3 3 1 14 -4 24 -6 10 -6 20 -1 23 5 3 5
21 1 41 -4 20 -4 38 1 41 5 3 7 10 3 15 -7 12 -8 168 0 176 3 3 1 14 -4 24 -6
10 -6 20 -2 23 5 3 5 29 2 59 -3 30 -3 66 1 81 4 14 4 26 1 26 -8 0 -6 85 2
106 3 8 2 14 -2 14 -8 0 -6 85 2 106 3 8 2 14 -2 14 -8 0 -6 85 2 106 3 8 2
14 -2 14 -8 0 -6 85 2 106 3 8 2 14 -2 14 -8 0 -6 85 2 106 3 8 2 14 -2 14 -8
0 -6 85 2 106 3 8 2 14 -2 14 -8 0 -6 85 2 106 3 8 2 14 -2 14 -8 0 -6 85 2
106 3 8 2 14 -2 14 -8 0 -8 68 1 76 3 3 2 17 -3 30 -6 14 -6 24 0 24 5 0 5 12
0 30 -5 17 -5 30 0 30 5 0 5 13 0 30 -5 17 -5 32 0 35 5 3 5 16 0 30 -6 15 -6
25 0 25 5 0 5 12 0 30 -5 17 -5 32 0 35 5 3 5 16 0 30 -6 15 -6 25 0 25 5 0 5
12 0 30 -5 17 -5 32 0 35 5 3 5 16 0 30 -6 15 -6 25 0 25 5 0 5 12 0 30 -5 17
-5 32 0 35 5 3 5 16 0 30 -6 15 -6 25 0 25 5 0 5 12 0 30 -5 17 -5 32 0 35 5
3 5 16 0 30 -6 15 -6 25 0 25 5 0 5 12 0 30 -5 17 -5 30 0 30 5 0 5 13 0 30
-5 16 -5 32 -1 35 5 2 46 -9 92 -26 139 -49 347 -119 352 -118 1 1 20 -6 42
-14 40 -15 132 -43 170 -52 11 -3 63 -16 115 -30 97 -25 119 -31 168 -40 15
-3 59 -12 97 -20 69 -14 110 -21 163 -29 15 -3 45 -7 67 -11 22 -3 63 -8 90
-11 28 -3 64 -7 80 -9 142 -17 379 -21 570 -10 72 4 140 8 153 8 12 1 22 3 22
7 0 3 17 5 38 5 35 1 107 9 162 19 14 3 42 7 62 10 21 3 57 10 80 15 24 5 59
12 78 15 19 3 78 17 130 31 52 14 106 27 120 29 14 3 72 19 130 36 58 18 110
33 115 34 12 2 114 35 135 43 8 4 17 7 20 8 3 1 12 5 20 8 8 3 44 16 80 27 36
12 69 26 75 31 5 5 16 9 25 9 8 0 51 14 95 31 44 18 94 37 110 44 17 6 41 17
55 23 14 6 26 11 27 11 1 1 15 -4 30 -10z"/>
<path d="M1550 9222 c-1 -64 -1 -4317 0 -4413 l0 -75 1633 0 c897 1 1641 0
1652 -2 20 -3 20 -11 20 -1898 0 -1508 3 -1894 13 -1894 6 0 12 5 12 10 0 6 5
10 11 10 6 0 52 24 102 54 51 29 97 55 102 57 9 3 224 127 438 253 18 10 34
22 35 27 2 5 8 9 14 9 6 0 53 27 105 60 51 33 98 60 103 60 6 0 10 3 10 8 0 4
27 23 60 42 33 19 60 38 60 43 0 4 6 7 14 7 8 0 16 3 18 8 3 7 95 72 103 72 5
0 37 26 61 48 7 7 16 12 19 12 3 -1 18 8 33 19 15 12 79 60 142 107 138 104
258 201 346 279 131 117 190 173 291 276 65 67 123 126 128 133 33 37 125 145
141 165 10 13 24 28 30 35 6 6 52 67 102 136 51 69 96 130 100 135 113 147
387 639 499 899 91 209 141 335 135 340 -3 3 -1 6 5 6 6 0 13 10 16 22 3 13
20 61 37 108 18 47 52 141 76 210 24 69 44 126 45 128 1 1 2 5 4 10 1 4 4 14
7 22 10 26 98 298 98 301 0 2 -718 4 -1595 3 -1106 0 -1595 3 -1598 10 -2 6
-3 946 -2 2089 0 1459 -3 2077 -10 2077 -6 0 -141 -43 -300 -96 -237 -78 -618
-195 -685 -209 -8 -2 -17 -4 -20 -5 -3 -1 -8 -2 -12 -1 -3 0 -28 -6 -55 -14
-26 -8 -59 -16 -73 -19 -14 -3 -36 -8 -50 -11 -14 -3 -45 -10 -70 -15 -25 -5
-55 -11 -66 -14 -12 -2 -39 -7 -60 -10 -22 -3 -50 -8 -64 -11 -59 -10 -108
-17 -150 -20 -25 -2 -45 -5 -45 -5 0 -13 -461 -19 -560 -7 -33 4 -71 9 -85 11
-14 2 -49 7 -79 11 -30 3 -62 10 -72 15 -9 5 -19 7 -22 4 -2 -3 -42 5 -88 17
-46 11 -91 23 -99 24 -8 2 -15 4 -15 5 0 1 -9 3 -20 5 -45 9 -238 76 -355 123
-139 56 -216 90 -400 181 -185 92 -170 89 -170 33z m3304 -2294 c-1 -1025 -2
-1866 -3 -1869 0 -3 -671 -5 -1491 -5 l-1490 0 0 1854 c0 1479 3 1853 13 1849
86 -36 224 -90 232 -91 6 -1 15 -4 20 -8 11 -6 230 -78 255 -83 8 -2 52 -13
97 -24 146 -38 299 -63 458 -78 99 -9 413 -9 520 0 101 8 139 12 240 28 39 6
84 12 100 14 17 2 51 8 78 14 26 6 64 14 85 17 20 3 40 8 43 10 3 2 21 6 40 9
46 9 51 10 74 18 11 3 31 8 45 11 14 3 43 10 65 16 22 6 47 12 55 14 71 19
171 47 193 55 15 6 27 8 27 5 0 -4 7 0 17 7 9 8 17 12 17 10 1 -4 112 25 146
38 32 12 147 50 155 50 7 1 10 -623 9 -1861z m3062 -2197 c7 -1 -15 -72 -52
-173 -36 -95 -67 -181 -69 -192 -2 -10 -8 -23 -13 -30 -5 -6 -13 -22 -17 -36
-4 -14 -16 -45 -27 -70 -10 -25 -23 -54 -28 -65 -135 -320 -282 -602 -454
-870 -39 -60 -76 -116 -83 -123 -7 -8 -18 -23 -24 -35 -12 -22 -24 -37 -51
-68 -10 -10 -18 -22 -18 -25 0 -3 -6 -11 -12 -18 -7 -7 -40 -48 -73 -90 -32
-42 -63 -76 -67 -76 -4 0 -8 -4 -8 -9 0 -5 -17 -29 -37 -53 -36 -41 -384 -388
-418 -417 -10 -7 -46 -39 -82 -69 -36 -30 -102 -83 -147 -118 -44 -35 -86 -68
-93 -73 -6 -6 -64 -49 -130 -96 -65 -46 -122 -88 -128 -93 -5 -4 -80 -53 -165
-109 -85 -56 -160 -106 -166 -112 -7 -5 -14 -8 -17 -5 -2 2 -10 -2 -17 -11 -7
-8 -18 -15 -25 -15 -8 0 -15 -4 -17 -8 -1 -5 -48 -35 -103 -68 -55 -32 -102
-61 -105 -64 -5 -5 -87 -50 -92 -50 -3 0 -2 3228 1 3240 1 4 2687 5 2737 1z"/>
</g>
</svg>
